<svg width="48" height="48" viewBox="0 0 48 48" fill="none" xmlns="http://www.w3.org/2000/svg">
<path d="M8.52319 42.3403C2.50884 37.2713 -0.636124 29.5742 0.107584 21.7439C0.8512 13.9135 5.38881 6.9461 12.2498 3.09976L12.5316 3.17278C7.09601 6.85598 3.31055 12.5131 1.97934 18.9426C0.616011 25.607 1.98769 32.5399 5.78633 38.183C6.75297 39.6225 7.53065 40.5296 8.71503 41.7923C8.69629 42.1454 8.71671 42.0275 8.52319 42.3403Z" fill="#BCAA82"/>
<path d="M36.1887 3.3842C42.6878 7.2331 46.9924 13.9197 47.8055 21.4288C48.6185 28.9378 45.8453 36.3911 40.322 41.5423C40.4259 41.1019 40.993 40.6763 41.0227 40.3777L40.8427 40.396C40.6357 40.5757 40.5522 40.615 40.3164 40.7419C40.6877 40.2176 41.0645 39.6973 41.4469 39.1811C45.4833 33.6364 47.2384 27.0576 46.158 20.2353C45.1399 13.5511 41.4831 7.5546 36.0068 3.5888L36.1887 3.3842Z" fill="#B8A57D"/>
<path d="M40.3162 40.7419C40.5519 40.615 40.6354 40.5756 40.8424 40.396L41.0225 40.3777C40.9928 40.6762 40.4257 41.1018 40.3217 41.5422C31.4505 49.8149 17.7979 50.1575 8.52307 42.3403C8.71659 42.0275 8.69616 42.1454 8.71491 41.7922C8.90805 41.9973 9.10584 42.1979 9.30817 42.3939C17.2316 50.0008 31.0008 49.7635 38.8209 42.3078C39.3402 41.8126 39.8221 41.2629 40.3162 40.7419Z" fill="#867758"/>
<path d="M12.2499 3.09978C19.7091 -1.08186 28.8309 -0.973486 36.1886 3.38419L36.0068 3.58879C28.5278 -1.08919 20.1703 -1.15815 12.5317 3.17279L12.2499 3.09978Z" fill="#A8967D"/>
<path d="M39.1322 21.4469C39.3182 21.6654 39.17 21.9678 39.1001 22.2609C38.1782 26.131 36.3219 29.9843 33.9007 33.135C33.1967 34.049 32.4361 34.918 31.6234 35.7369C29.4098 37.9758 25.2554 41.4784 25.1338 44.9681L25.1324 45.0224L24.9685 45.0621C24.7707 44.5444 24.7554 43.8189 24.6882 43.2649C23.4743 33.2578 30.3365 25.5836 39.1322 21.4469Z" fill="#A38E66"/>
<path d="M8.71362 13.9484C9.56685 14.4547 10.4935 15.0115 11.3805 15.4396C14.4258 16.9094 18.0098 18.2545 20.1172 21.0566C19.6898 20.8716 19.3078 20.4078 18.9999 20.0477C18.5429 20.7284 17.3223 23.5127 17.4797 24.1634C15.1192 22.1443 13.4386 20.8386 11.2254 18.6383C11.7219 19.7337 12.521 20.4572 13.2096 21.448C12.9209 21.3804 13.0297 21.4305 12.7893 21.191C12.7001 21.3499 12.7262 21.3378 12.7598 21.4942C12.8496 21.9126 12.2669 22.7537 12.2388 23.162C12.1549 24.3829 12.3322 26.6325 11.8096 27.7196C11.5543 27.9282 11.6728 27.8845 11.3651 27.9057C10.8711 27.3472 10.4286 26.7455 10.0427 26.1076C7.66178 22.189 7.67356 18.2441 8.71362 13.9484Z" fill="#A8A284"/>
<path d="M11.3652 27.9056C11.6729 27.8845 11.5544 27.9282 11.8097 27.7195C12.3323 26.6325 12.155 24.3829 12.2389 23.162C12.267 22.7537 12.8497 21.9126 12.7599 21.4941C12.7263 21.3377 12.7002 21.3499 12.7894 21.191C13.0298 21.4305 12.921 21.3803 13.2097 21.448C14.4456 22.8574 15.8122 24.0609 17.1596 25.3561C20.4192 28.4895 22.1548 31.7143 22.7564 36.1721C22.9375 37.1956 23.0604 40.6885 22.7272 41.6284C22.5079 41.3454 22.5463 40.836 22.5551 40.4855C22.3518 39.4021 21.8878 38.2759 21.4293 37.2795C19.125 32.2727 14.9565 31.7739 11.3652 27.9056Z" fill="#858470"/>
<path d="M22.756 36.1721C22.9371 37.1956 23.06 40.6885 22.7269 41.6285C22.5076 41.3454 22.5459 40.836 22.5547 40.4855C23.0853 39.5732 22.4738 37.1562 22.756 36.1721Z" fill="#697165"/>
<path d="M23.5794 10.772C24.7728 10.6364 25.9471 11.152 26.6547 12.1225C27.3624 13.0929 27.4945 14.3686 27.0005 15.4634C26.5066 16.5583 25.4627 17.3035 24.2668 17.415C22.4436 17.5851 20.8234 16.2553 20.6349 14.4339C20.4465 12.6124 21.76 10.9789 23.5794 10.772Z" fill="#BEA77D"/>
<path d="M35.8627 16.0971C36.6071 15.9694 38.405 16.0517 39.1708 16.18C38.5801 16.297 38.1562 16.2846 37.5194 16.4651C32.0659 18.0102 28.0566 21.3132 25.2503 26.1386C24.7346 27.1042 24.5386 27.7221 24.2783 28.7778C24.0803 25.6308 24.1631 23.3729 26.2419 20.8246C28.8555 17.6207 31.9344 16.5493 35.8627 16.0971Z" fill="#697165"/>
<path d="M18.9998 20.0476C19.3078 20.4077 19.6898 20.8715 20.1172 21.0566C22.4487 23.4662 23.131 27.3684 23.076 30.5932C23.066 31.1198 23.039 31.6459 22.995 32.1708C22.3018 29.1845 19.782 26.1074 17.4796 24.1634C17.3222 23.5127 18.5428 20.7284 18.9998 20.0476Z" fill="#697165"/>
</svg>
