<svg width="48" height="48" viewBox="0 0 48 48" fill="none" xmlns="http://www.w3.org/2000/svg">
<path d="M8.52319 42.3402C2.50884 37.2711 -0.636124 29.5741 0.107584 21.7437C0.8512 13.9133 5.38881 6.94594 12.2498 3.09961L12.5316 3.17262C7.09601 6.85582 3.31055 12.5129 1.97934 18.9425C0.616011 25.6069 1.98769 32.5397 5.78633 38.1828C6.75297 39.6223 7.53065 40.5295 8.71503 41.7921C8.69629 42.1453 8.71671 42.0274 8.52319 42.3402Z" fill="white"/>
<path d="M36.1887 3.38428C42.6878 7.23317 46.9924 13.9198 47.8055 21.4289C48.6185 28.9379 45.8453 36.3911 40.322 41.5423C40.4259 41.1019 40.993 40.6764 41.0227 40.3778L40.8427 40.3961C40.6357 40.5758 40.5522 40.6151 40.3164 40.742C40.6877 40.2177 41.0645 39.6974 41.4469 39.1812C45.4833 33.6364 47.2384 27.0577 46.158 20.2354C45.1399 13.5512 41.4831 7.55468 36.0068 3.58887L36.1887 3.38428Z" fill="white"/>
<path d="M40.3162 40.7416C40.5519 40.6148 40.6354 40.5754 40.8424 40.3957L41.0225 40.3774C40.9928 40.676 40.4257 41.1016 40.3217 41.542C31.4505 49.8146 17.7979 50.1573 8.52307 42.3401C8.71659 42.0273 8.69616 42.1452 8.71491 41.792C8.90805 41.997 9.10584 42.1977 9.30817 42.3937C17.2316 50.0005 31.0008 49.7633 38.8209 42.3076C39.3402 41.8124 39.8221 41.2627 40.3162 40.7416Z" fill="white"/>
<path d="M12.2499 3.09978C19.7091 -1.08186 28.8309 -0.973486 36.1886 3.38419L36.0068 3.58879C28.5278 -1.08919 20.1703 -1.15815 12.5317 3.17279L12.2499 3.09978Z" fill="white"/>
<path d="M39.1322 21.4468C39.3182 21.6653 39.17 21.9677 39.1001 22.2607C38.1782 26.1309 36.3219 29.9842 33.9007 33.1349C33.1967 34.0489 32.4361 34.9179 31.6234 35.7368C29.4098 37.9757 25.2554 41.4783 25.1338 44.968L25.1324 45.0223L24.9685 45.062C24.7707 44.5443 24.7554 43.8188 24.6882 43.2648C23.4743 33.2577 30.3365 25.5835 39.1322 21.4468Z" fill="white"/>
<path d="M8.71362 13.9482C9.56685 14.4545 10.4935 15.0113 11.3805 15.4395C14.4258 16.9092 18.0098 18.2544 20.1172 21.0565C19.6898 20.8714 19.3078 20.4076 18.9999 20.0475C18.5429 20.7283 17.3223 23.5126 17.4797 24.1633C15.1192 22.1442 13.4386 20.8385 11.2254 18.6382C11.7219 19.7335 12.521 20.457 13.2096 21.4479C12.9209 21.3802 13.0297 21.4303 12.7893 21.1909C12.7001 21.3498 12.7262 21.3376 12.7598 21.494C12.8496 21.9125 12.2669 22.7536 12.2388 23.1619C12.1549 24.3828 12.3322 26.6324 11.8096 27.7194C11.5543 27.9281 11.6728 27.8844 11.3651 27.9055C10.8711 27.3471 10.4286 26.7454 10.0427 26.1075C7.66178 22.1889 7.67356 18.244 8.71362 13.9482Z" fill="white"/>
<path d="M11.3652 27.9055C11.6729 27.8844 11.5544 27.9281 11.8097 27.7195C12.3323 26.6324 12.155 24.3828 12.2389 23.1619C12.267 22.7536 12.8497 21.9125 12.7599 21.494C12.7263 21.3377 12.7002 21.3498 12.7894 21.1909C13.0298 21.4304 12.921 21.3803 13.2097 21.4479C14.4456 22.8573 15.8122 24.0608 17.1596 25.356C20.4192 28.4894 22.1548 31.7142 22.7564 36.172C22.9375 37.1955 23.0604 40.6885 22.7272 41.6284C22.5079 41.3453 22.5463 40.8359 22.5551 40.4854C22.3518 39.402 21.8878 38.2758 21.4293 37.2794C19.125 32.2727 14.9565 31.7738 11.3652 27.9055Z" fill="white"/>
<path d="M22.756 36.1719C22.9371 37.1954 23.06 40.6883 22.7269 41.6282C22.5076 41.3452 22.5459 40.8358 22.5547 40.4853C23.0853 39.573 22.4738 37.156 22.756 36.1719Z" fill="white"/>
<path d="M23.5794 10.7719C24.7728 10.6363 25.9471 11.1519 26.6547 12.1223C27.3624 13.0928 27.4945 14.3685 27.0005 15.4633C26.5066 16.5581 25.4627 17.3033 24.2668 17.4149C22.4436 17.585 20.8234 16.2552 20.6349 14.4337C20.4465 12.6123 21.76 10.9788 23.5794 10.7719Z" fill="white"/>
<path d="M35.8627 16.0972C36.6071 15.9695 38.405 16.0517 39.1708 16.1801C38.5801 16.297 38.1562 16.2847 37.5194 16.4651C32.0659 18.0102 28.0566 21.3132 25.2503 26.1386C24.7346 27.1042 24.5386 27.7222 24.2783 28.7778C24.0803 25.6308 24.1631 23.3729 26.2419 20.8246C28.8555 17.6207 31.9344 16.5494 35.8627 16.0972Z" fill="white"/>
<path d="M18.9998 20.0479C19.3078 20.408 19.6898 20.8718 20.1172 21.0568C22.4487 23.4664 23.131 27.3686 23.076 30.5934C23.066 31.12 23.039 31.6462 22.995 32.171C22.3018 29.1847 19.782 26.1077 17.4796 24.1636C17.3222 23.5129 18.5428 20.7286 18.9998 20.0479Z" fill="white"/>
</svg>
