<svg width="16" height="16" viewBox="0 0 16 16" fill="none" xmlns="http://www.w3.org/2000/svg">
<path d="M4.00003 1.49995L6.20003 4.79995C6.4667 5.19995 6.40003 5.59995 6.00003 5.99995L4.90003 7.09995C5.90003 8.76661 7.23337 10.0999 8.90003 11.0999L10 9.99995C10.4 9.59995 10.8 9.53328 11.2 9.79995L14.5 11.9999C14.8334 12.2666 14.8667 12.6333 14.6 13.0999L13.8 14.1999C13.4667 14.7333 12.9667 14.9333 12.3 14.7999C6.50003 13.6999 2.30003 9.49995 1.20003 3.69995C1.0667 3.03328 1.2667 2.53328 1.80003 2.19995L2.90003 1.39995C3.3667 1.13328 3.73337 1.16661 4.00003 1.49995Z" stroke="white" stroke-width="1.25" stroke-linecap="round" stroke-linejoin="round"/>
</svg>

